<?xml version="1.0" encoding="utf-8"?>
<!-- Generator: Adobe Illustrator 18.0.0, SVG Export Plug-In . SVG Version: 6.00 Build 0)  -->
<!DOCTYPE svg PUBLIC "-//W3C//DTD SVG 1.1//EN" "http://www.w3.org/Graphics/SVG/1.1/DTD/svg11.dtd">
<svg version="1.1" id="Layer_1" xmlns="http://www.w3.org/2000/svg" xmlns:xlink="http://www.w3.org/1999/xlink" x="0px" y="0px"
	 viewBox="0 0 130 84" enable-background="new 0 0 130 84" xml:space="preserve">
<g>
	<g>
		<path fill="#010101" d="M59.2,83.7c0.2-0.1,0.2-0.1,0.3-0.2c0.1-0.1,0.1-0.2,0.1-0.4v-2c0-0.4-0.1-0.5-0.3-0.6h0.8
			c0.1,0,0.3,0,0.5,0c0.2,0,0.4,0,0.6,0c0.8,0,1.4,0.1,2,0.4c0.5,0.3,0.8,0.7,0.8,1.2c0,0.7-0.6,1.2-1.4,1.5c-0.4,0.1-0.9,0.2-2,0.2
			L59.2,83.7L59.2,83.7z M60.3,83.3c0.2,0,0.3,0,0.6,0c0.7,0,1.1-0.1,1.4-0.2c0.5-0.2,0.7-0.6,0.7-1c0-0.4-0.2-0.7-0.5-0.9
			c-0.3-0.2-0.9-0.4-1.5-0.4c-0.2,0-0.4,0-0.7,0.1L60.3,83.3L60.3,83.3z"/>
		<path fill="#010101" d="M69.8,81.1c0-0.4-0.1-0.5-0.3-0.6h1.4c-0.3,0.1-0.3,0.2-0.3,0.6v2c0,0.4,0.1,0.5,0.3,0.6h-1.4
			c0.3-0.1,0.3-0.2,0.3-0.6V81.1z"/>
		<path fill="#010101" d="M79.6,81c-0.3-0.2-0.7-0.3-1.2-0.3c-0.6,0-1,0.2-1,0.5c0,0.2,0.2,0.4,1.1,0.6c0.6,0.2,0.9,0.3,1.1,0.4
			c0.3,0.1,0.4,0.3,0.4,0.5c0,0.2-0.2,0.5-0.5,0.7c-0.4,0.2-0.9,0.4-1.6,0.4c-0.5,0-0.9,0-1.3-0.2L76.4,83c0.5,0.3,1,0.4,1.7,0.4
			c0.6,0,1.1-0.2,1.1-0.5c0-0.1-0.1-0.3-0.2-0.4c-0.2-0.1-0.4-0.2-1-0.3c-0.6-0.2-0.8-0.3-1-0.4c-0.2-0.1-0.4-0.4-0.4-0.6
			c0-0.5,0.7-0.9,1.9-0.9c0.4,0,0.7,0,1.1,0.1L79.6,81L79.6,81z"/>
		<path fill="#010101" d="M88.9,81c-0.1-0.1-0.3-0.2-0.7-0.2c-0.2,0-0.2,0-0.5,0h-0.1v2.3c0,0.3,0.1,0.4,0.4,0.6h-1.5
			c0.3-0.1,0.3-0.2,0.3-0.6v-2.2c-0.1,0-0.4,0-0.6,0c-0.5,0-0.7,0-1,0.2l0.3-0.6c0.1,0,0.2,0,0.4,0h2.8c0.2,0,0.3,0,0.3,0
			c0,0,0.1,0,0.1,0L88.9,81z"/>
		<path fill="#010101" d="M95.4,83.1c0,0.4,0.1,0.5,0.3,0.6h-1.4c0.3-0.1,0.3-0.2,0.3-0.6v-2c0-0.4-0.1-0.5-0.3-0.6h1.1
			c0.1,0,0.2,0,0.3,0c0.1,0,0.2,0,0.3,0c0.5,0,0.8,0.1,1.1,0.2c0.3,0.2,0.5,0.4,0.5,0.6c0,0.4-0.5,0.7-1.2,0.9
			c1.1,1,1.7,1.4,2.3,1.6c-0.5,0-0.5,0-0.7,0c-0.4,0-0.7-0.1-1.2-0.5c-0.4-0.3-0.9-0.8-1.3-1.2c0.8-0.1,1.3-0.3,1.3-0.7
			c0-0.3-0.4-0.5-0.9-0.5c-0.2,0-0.3,0-0.5,0L95.4,83.1L95.4,83.1z"/>
		<path fill="#010101" d="M104.1,81.1c0-0.4-0.1-0.5-0.3-0.6h1.4c-0.3,0.1-0.3,0.2-0.3,0.6v2c0,0.4,0.1,0.5,0.3,0.6h-1.4
			c0.3-0.1,0.3-0.2,0.3-0.6V81.1z"/>
		<path fill="#010101" d="M114.8,81c-0.5-0.2-0.9-0.3-1.4-0.3c-1.1,0-1.8,0.5-1.8,1.2c0,0.8,0.8,1.4,1.9,1.4c0.5,0,1-0.1,1.6-0.3
			l-0.4,0.6c-0.4,0.1-0.7,0.1-1.2,0.1c-1.7,0-2.8-0.7-2.8-1.7c0-1,1.1-1.7,2.7-1.7c0.4,0,0.8,0,1.4,0.1V81z"/>
		<path fill="#010101" d="M123.9,81c-0.1-0.1-0.3-0.2-0.7-0.2c-0.2,0-0.2,0-0.5,0h-0.1v2.3c0,0.3,0.1,0.4,0.4,0.6h-1.5
			c0.3-0.1,0.3-0.2,0.3-0.6v-2.2c-0.1,0-0.4,0-0.6,0c-0.5,0-0.7,0-1,0.2l0.3-0.6c0.1,0,0.2,0,0.4,0h2.8c0.2,0,0.3,0,0.3,0
			c0.1,0,0.1,0,0.2,0L123.9,81z"/>
	</g>
</g>
<g>
	<polygon fill="#009B7C" points="20.8,11.3 22.2,0 31.1,8.6 	"/>
	<polygon fill="#0F7AC0" points="22.9,23.8 24.5,14.3 52.8,7.2 31.1,21.8 40.5,38.4 	"/>
	<polygon fill="#EF4043" points="13.5,19.5 0,10.6 20.3,14.7 19.5,21.6 4,39.1 	"/>
	<polygon fill="#FED520" points="9.3,35 22.8,26.5 41,41.3 22.3,32 	"/>
</g>
<g>
	<path fill="#010101" d="M62.9,63.8c-1.6,0-2.9,0.6-3.9,1.6c-1,1-1.5,2.4-1.5,4.2c0,1.7,0.5,3.1,1.5,4.3c1,1.1,2.3,1.7,3.8,1.7
		c1.6,0,2.9-0.5,3.9-1.6c1-1.1,1.6-2.5,1.6-4.1c0-1.7-0.6-3.2-1.6-4.4C65.6,64.4,64.4,63.8,62.9,63.8L62.9,63.8z M62.7,77.1
		c-1,0-2.1-0.2-3.1-0.5c-0.9-0.3-1.7-0.8-2.4-1.5c-0.8-0.6-1.3-1.5-1.7-2.4c-0.4-0.9-0.6-1.9-0.6-2.9c0-0.8,0.1-1.6,0.4-2.3
		c0.2-0.7,0.6-1.4,1-2.1c0.8-1,1.6-1.8,2.8-2.3c1.1-0.6,2.2-0.8,3.6-0.8c1.1,0,2.1,0.2,3.1,0.5c1,0.3,1.8,0.8,2.5,1.5
		c0.7,0.7,1.3,1.4,1.7,2.4c0.4,0.9,0.6,1.9,0.6,3c0,1-0.2,2-0.7,2.9c-0.4,1-1,1.8-1.8,2.5c-0.7,0.7-1.5,1.2-2.4,1.5
		C64.7,77,63.8,77.1,62.7,77.1L62.7,77.1z"/>
	<path fill="#010101" d="M71.1,76.8c0.3-0.3,0.5-0.6,0.6-0.9c0.1-0.4,0.2-0.9,0.2-1.6v-9.3c0-0.7-0.1-1.2-0.2-1.6
		c-0.1-0.3-0.3-0.6-0.6-0.9H75c-0.3,0.3-0.6,0.6-0.7,0.9c-0.1,0.4-0.1,0.9-0.1,1.6V75c0.5,0.1,1,0.1,1.4,0.1c0.5,0,0.8,0,1.2,0
		c0.7,0,1.4-0.1,2.1-0.2c0.6-0.2,1.3-0.5,1.9-0.9l-1,2.8L71.1,76.8L71.1,76.8z"/>
	<path fill="#010101" d="M80.4,76.8c0.3-0.3,0.5-0.6,0.7-0.9c0.1-0.4,0.2-0.9,0.2-1.6v-9.3c0-0.7-0.1-1.2-0.2-1.6
		c-0.2-0.3-0.3-0.6-0.7-0.9h4c-0.3,0.3-0.6,0.6-0.7,0.9c-0.1,0.4-0.2,0.9-0.2,1.6V75c0.6,0.1,1,0.1,1.5,0.1c0.4,0,0.8,0,1.1,0
		c0.7,0,1.4-0.1,2.1-0.2c0.6-0.2,1.3-0.5,1.9-0.9l-1,2.8L80.4,76.8L80.4,76.8z"/>
	<path fill="#010101" d="M90.4,76.8c0.3-0.3,0.5-0.6,0.7-0.9c0.1-0.4,0.2-0.9,0.2-1.6v-9.2c0-0.7-0.1-1.2-0.2-1.6
		c-0.1-0.3-0.3-0.7-0.7-0.9h7.8v2.2c-0.3-0.2-0.7-0.4-1.1-0.6c-0.4-0.1-0.9-0.2-1.4-0.2c-0.3,0-0.6,0-0.9,0.1
		c-0.4,0-0.8,0.1-1.2,0.2v4H97v2.1c-0.2-0.2-0.4-0.3-0.7-0.4c-0.3-0.1-0.8-0.1-1.5-0.1h-1.3V75c0.5,0.1,1,0.1,1.5,0.1
		c0.4,0.1,0.8,0.1,1.1,0.1c0.7,0,1.4-0.1,2-0.2c0.7-0.2,1.3-0.5,2-0.9l-1,2.8L90.4,76.8L90.4,76.8z"/>
	<path fill="#010101" d="M111.9,64.9c-0.6-0.4-1.2-0.7-1.8-0.9c-0.6-0.2-1.2-0.3-1.8-0.3c-1.7,0-3,0.6-4,1.6c-1,1.1-1.5,2.5-1.5,4.3
		c0,1.8,0.5,3.2,1.6,4.4c1.1,1,2.4,1.5,4.3,1.5c0.4,0,0.8,0,1.3-0.1c0.5-0.1,0.9-0.2,1.5-0.4v-3c0-0.8-0.1-1.3-0.2-1.7
		c-0.1-0.3-0.4-0.6-0.7-0.9h2.8v6.9c-0.9,0.2-1.8,0.4-2.6,0.5c-0.8,0.1-1.5,0.1-2.2,0.1c-1,0-1.9-0.1-2.7-0.2
		c-0.8-0.2-1.5-0.5-2.1-0.9c-1.1-0.6-1.9-1.5-2.5-2.6c-0.6-1.1-0.8-2.3-0.8-3.6c0-1,0.1-2,0.6-3c0.5-0.9,1.1-1.8,1.9-2.6
		c0.7-0.6,1.6-1.2,2.5-1.5c0.9-0.3,2-0.5,3.1-0.5c0.5,0,1,0.1,1.6,0.1c0.6,0.1,1.2,0.2,1.9,0.3L111.9,64.9L111.9,64.9z"/>
	<path fill="#010101" d="M114.7,76.8c0.3-0.3,0.5-0.6,0.7-0.9c0.1-0.4,0.2-0.9,0.2-1.6v-9.2c0-0.7-0.1-1.2-0.2-1.6
		c-0.1-0.3-0.3-0.7-0.7-0.9h7.8v2.2c-0.3-0.2-0.7-0.4-1.2-0.6c-0.4-0.1-0.9-0.2-1.4-0.2c-0.3,0-0.6,0-0.9,0.1
		c-0.4,0-0.7,0.1-1.2,0.2v4h3.4v2.1c-0.1-0.2-0.3-0.3-0.7-0.4c-0.3-0.1-0.8-0.1-1.5-0.1h-1.2V75c0.5,0.1,1,0.1,1.4,0.1
		c0.4,0.1,0.8,0.1,1.2,0.1c0.7,0,1.4-0.1,2-0.2c0.7-0.2,1.3-0.5,1.9-0.9l-1,2.8L114.7,76.8L114.7,76.8z"/>
	<path fill="#010101" d="M56,78.8l-1.5,3.8c-1,0.3-2,0.6-2.9,0.8c-0.9,0.2-1.7,0.2-2.5,0.2c-1.2,0-2.4-0.1-3.5-0.5
		c-1.1-0.3-2.2-0.8-3.2-1.3c-1.6-1-2.8-2.3-3.8-4c-0.9-1.6-1.3-3.5-1.3-5.4c0-1.5,0.3-3,0.9-4.4c0.7-1.5,1.6-2.7,2.8-3.8
		c1-1,2.3-1.7,3.7-2.3c1.4-0.5,2.9-0.8,4.4-0.8c0.8,0,1.5,0.1,2.4,0.2c0.8,0.1,1.7,0.3,2.7,0.6v3.4c-1-0.5-1.9-0.9-2.8-1.2
		C50.6,64.1,49.8,64,49,64c-2.4,0-4.3,0.8-5.8,2.3c-1.4,1.4-2.1,3.3-2.1,5.8c0,2.7,0.7,4.8,2.2,6.5c1.5,1.6,3.5,2.5,5.9,2.5
		c1,0,2-0.2,3.2-0.5C53.5,80.1,54.7,79.6,56,78.8L56,78.8z"/>
	<path fill="#010101" d="M50.4,28.6h6.3l-3-8.3L50.4,28.6L50.4,28.6z M47.5,35.9c-0.1,0.2-0.1,0.5-0.2,0.7c-0.1,0.3-0.1,0.5-0.1,0.8
		c0,0.2,0.1,0.4,0.2,0.6c0.1,0.3,0.4,0.5,0.8,0.8h-5.1c0.4-0.3,0.8-0.6,1.2-1.2c0.3-0.5,0.7-1.2,1-2.1l6-15.2
		c0.1-0.3,0.2-0.6,0.3-0.9c0-0.2,0.1-0.5,0.1-0.7c0-0.2,0-0.5-0.2-0.7c-0.1-0.2-0.3-0.4-0.6-0.6h4.8l6.8,18c0.4,0.8,0.7,1.5,1.1,2
		c0.4,0.5,0.8,1,1.4,1.5h-6.2l0.1-0.1c0.6-0.6,0.9-1,0.9-1.3c0-0.3-0.1-0.8-0.4-1.5c0-0.1,0-0.1-0.1-0.2l-1.9-5h-7.9L47.5,35.9
		L47.5,35.9z"/>
	<path fill="#010101" d="M74.9,38.7v-1.1c-0.7,0.5-1.4,0.9-2.1,1.1c-0.7,0.2-1.4,0.3-2.2,0.3c-0.8,0-1.6-0.1-2.2-0.4
		c-0.7-0.3-1.2-0.7-1.7-1.2c-0.3-0.4-0.6-1-0.8-1.5c-0.1-0.5-0.2-1.3-0.2-2.3V27c0-0.7-0.1-1.3-0.2-1.6c-0.1-0.3-0.3-0.6-0.6-0.9
		h3.8c-0.3,0.3-0.5,0.6-0.7,0.9c-0.1,0.3-0.2,0.9-0.2,1.6v6.2c0,1,0,1.7,0.1,2.3c0.1,0.4,0.3,0.8,0.5,1c0.3,0.4,0.7,0.6,1.1,0.8
		c0.5,0.1,1,0.2,1.6,0.2c0.5,0,1-0.1,1.4-0.2c0.5-0.2,0.8-0.4,1.2-0.7c0.3-0.2,0.5-0.6,0.6-0.9c0.1-0.4,0.2-0.9,0.2-1.6V27
		c0-0.7-0.1-1.3-0.2-1.6c-0.1-0.3-0.3-0.6-0.6-0.9h3.9c-0.3,0.2-0.5,0.6-0.6,0.9C77,25.8,77,26.4,77,27v9.2c0,0.7,0.1,1.3,0.2,1.6
		c0.1,0.3,0.3,0.6,0.6,0.9H74.9L74.9,38.7z"/>
	<path fill="#010101" d="M80.7,38.4L80,35.8c0.8,0.6,1.6,1,2.4,1.3c0.7,0.3,1.5,0.4,2.3,0.4c1,0,1.8-0.2,2.4-0.6
		c0.6-0.4,0.9-0.9,0.9-1.6c0-0.1,0-0.3-0.1-0.6c-0.1-0.2-0.2-0.4-0.2-0.6c-0.3-0.4-1.2-0.9-2.7-1.6c-0.4-0.2-0.7-0.3-0.9-0.5
		c-1.4-0.7-2.3-1.3-2.9-1.9c-0.5-0.6-0.7-1.3-0.7-2.1c0-1.1,0.5-2.1,1.4-2.7c0.9-0.7,2.2-1.1,3.9-1.1c0.5,0,1,0.1,1.5,0.1
		c0.6,0.1,1.2,0.1,1.8,0.2V27c-0.6-0.5-1.2-0.8-1.8-1c-0.6-0.2-1.2-0.3-1.8-0.3c-0.8,0-1.5,0.2-2,0.5c-0.5,0.4-0.7,0.8-0.7,1.4
		c0,0.5,0.1,0.9,0.5,1.3c0.4,0.4,1.3,0.9,2.6,1.5c0.1,0,0.2,0.1,0.3,0.1c1.2,0.6,2,1,2.6,1.5c0.4,0.3,0.8,0.7,1,1.1
		c0.2,0.5,0.4,1,0.4,1.5c0,1.3-0.6,2.3-1.7,3.2c-1.1,0.8-2.5,1.2-4.2,1.2c-0.5,0-1.1,0-1.7-0.2C82.1,38.8,81.4,38.7,80.7,38.4
		L80.7,38.4z"/>
	<path fill="#010101" d="M98,36.2c0,0.7,0.1,1.3,0.2,1.6c0.1,0.4,0.3,0.6,0.6,0.9h-3.9c0.3-0.3,0.5-0.5,0.7-0.9
		c0.1-0.3,0.2-0.9,0.2-1.6V26.1h-1.2c-0.8,0-1.4,0.1-2,0.2c-0.5,0.1-0.9,0.3-1.1,0.6l0.7-2.3h10.2l-0.7,2.3
		c-0.2-0.2-0.5-0.4-0.8-0.5c-0.4-0.1-0.8-0.2-1.3-0.2H98L98,36.2L98,36.2z"/>
	<path fill="#010101" d="M107.1,36.2c0,0.7,0,1.3,0.1,1.6c0.1,0.3,0.4,0.6,0.7,0.9h-4c0.3-0.3,0.5-0.6,0.7-0.9
		c0.1-0.3,0.2-0.9,0.2-1.6V27c0-0.8-0.1-1.3-0.2-1.6c-0.1-0.3-0.3-0.6-0.7-0.9h4c-0.3,0.3-0.6,0.6-0.7,0.9c-0.1,0.3-0.1,0.9-0.1,1.6
		V36.2L107.1,36.2z"/>
	<path fill="#010101" d="M123.8,24.5c-0.3,0.3-0.6,0.6-0.7,0.9c-0.1,0.3-0.2,0.9-0.2,1.6v12c-0.5,0-1-0.2-1.4-0.5
		c-0.5-0.3-1-0.9-1.7-1.7l-7.4-9.3v8.6c0,0.7,0,1.3,0.2,1.6c0.1,0.3,0.3,0.6,0.7,0.9H110c0.3-0.3,0.5-0.6,0.6-0.9
		c0.1-0.3,0.2-0.9,0.2-1.6V27c0-0.7-0.1-1.3-0.2-1.6c-0.1-0.3-0.3-0.6-0.6-0.9h2.9l8.5,10.7V27c0-0.7-0.1-1.3-0.2-1.6
		c-0.1-0.3-0.3-0.6-0.6-0.9L123.8,24.5L123.8,24.5z"/>
	<path fill="#010101" d="M30.7,44.3c-1.6,0-2.8,0.6-3.8,1.7c-1,1.1-1.5,2.5-1.5,4.3c0,1.7,0.5,3.2,1.5,4.4c1,1.2,2.2,1.8,3.7,1.8
		c1.5,0,2.8-0.5,3.8-1.7c1-1.1,1.5-2.6,1.5-4.3c0-1.7-0.5-3.2-1.5-4.4C33.4,44.9,32.1,44.3,30.7,44.3L30.7,44.3z M30.6,58
		c-1,0-2.1-0.1-3-0.5c-1-0.3-1.7-0.8-2.4-1.5c-0.7-0.8-1.3-1.6-1.6-2.5c-0.5-0.9-0.6-2-0.6-3c0-0.8,0.1-1.6,0.3-2.4
		c0.3-0.8,0.6-1.5,1-2.2c0.8-1,1.6-1.8,2.7-2.4c1.1-0.5,2.2-0.8,3.5-0.8c1,0,2.1,0.2,3,0.5c0.9,0.3,1.7,0.8,2.4,1.5
		c0.8,0.7,1.3,1.5,1.7,2.5c0.3,0.9,0.6,2,0.6,3c0,1-0.3,2-0.7,3c-0.4,0.9-1,1.8-1.7,2.6c-0.7,0.6-1.5,1.1-2.4,1.5
		C32.5,57.8,31.6,58,30.6,58L30.6,58z"/>
	<path fill="#010101" d="M37.5,57.7c0.3-0.4,0.6-0.8,0.8-1.1c0.2-0.3,0.3-0.8,0.4-1.3l1.3-9.8c0.1-0.2,0.1-0.4,0.1-0.6
		c0-0.2,0-0.3,0-0.4c0-0.2-0.1-0.4-0.1-0.6c-0.1-0.2-0.3-0.3-0.6-0.7h3.4l4,10.9l3.9-10.9h3.3c-0.2,0.2-0.4,0.4-0.5,0.6
		c-0.1,0.2-0.1,0.5-0.1,0.8c0,0.2,0,0.3,0,0.5c0,0.1,0,0.2,0,0.3l1.2,10c0,0.5,0.1,0.9,0.3,1.3c0.1,0.3,0.3,0.6,0.7,1h-3.7
		c0.2-0.2,0.5-0.5,0.5-0.7c0.1-0.2,0.2-0.6,0.2-0.9c0-0.1,0-0.1,0-0.2c0-0.1,0-0.1,0-0.1l-1.1-10.3L47,57.9
		c-0.3-0.2-0.6-0.5-0.9-0.9c-0.2-0.3-0.6-0.9-0.8-1.6l-3.8-9.9l-1.3,9.6c-0.1,0.3-0.1,0.6-0.1,0.7c0,0.1,0,0.2,0,0.3
		c0,0.4,0,0.7,0.2,0.9c0.1,0.2,0.3,0.5,0.6,0.8L37.5,57.7L37.5,57.7z"/>
	<path fill="#010101" d="M55,57.7c0.3-0.4,0.6-0.8,0.8-1.1c0.1-0.3,0.3-0.8,0.4-1.3l1.3-9.8c0-0.2,0.1-0.4,0.1-0.6
		c0-0.2,0-0.3,0-0.4c0-0.2-0.1-0.4-0.1-0.6c-0.1-0.1-0.2-0.3-0.5-0.7h3.5L64.5,54l4-10.9h3.3c-0.3,0.2-0.4,0.4-0.5,0.6
		c-0.1,0.2-0.1,0.5-0.1,0.8c0,0.2,0,0.3,0,0.5c0,0.1,0,0.2,0,0.3l1.2,10c0,0.5,0.1,0.9,0.3,1.3c0.1,0.3,0.3,0.7,0.7,1h-3.7
		c0.3-0.2,0.5-0.5,0.5-0.7c0.1-0.2,0.2-0.5,0.2-0.9c0,0,0-0.1,0-0.2c0-0.1,0-0.1,0-0.1l-1.1-10.3l-4.7,12.4c-0.4-0.2-0.7-0.6-1-0.9
		c-0.2-0.3-0.5-0.9-0.8-1.6l-3.8-9.9L57.8,55c0,0.3-0.1,0.6-0.1,0.7c0,0.1,0,0.2,0,0.3c0,0.4,0.1,0.7,0.2,0.9
		c0.1,0.2,0.3,0.5,0.6,0.8L55,57.7L55,57.7z"/>
	<path fill="#010101" d="M81.9,57.7v-1.1c-0.7,0.5-1.4,0.9-2.1,1.2c-0.7,0.2-1.4,0.3-2.1,0.3c-0.8,0-1.5-0.1-2.2-0.4
		c-0.6-0.3-1.2-0.7-1.6-1.2c-0.4-0.5-0.6-1-0.8-1.6C73,54.3,73,53.5,73,52.5v-6.9c0-0.7-0.1-1.3-0.2-1.6c-0.1-0.4-0.3-0.6-0.6-0.9
		h3.8c-0.3,0.3-0.5,0.6-0.6,0.9c-0.1,0.3-0.1,0.9-0.1,1.6v6.4c0,1,0,1.7,0.1,2.2c0,0.5,0.2,0.9,0.4,1.2c0.3,0.3,0.6,0.6,1.1,0.8
		c0.4,0.2,1,0.2,1.6,0.2c0.5,0,1,0,1.4-0.2c0.4-0.1,0.8-0.4,1.2-0.7c0.3-0.2,0.5-0.6,0.7-1c0.1-0.4,0.2-0.9,0.2-1.6v-7.3
		c0-0.8-0.1-1.3-0.2-1.6c-0.1-0.4-0.3-0.7-0.6-0.9h3.8c-0.3,0.2-0.5,0.6-0.7,1C84,44.4,84,45,84,45.7v9.4c0,0.8,0,1.3,0.2,1.7
		c0.1,0.3,0.3,0.6,0.7,0.9H81.9L81.9,57.7z"/>
	<path fill="#010101" d="M98.4,43.1c-0.3,0.3-0.5,0.6-0.7,0.9c-0.1,0.4-0.1,0.9-0.1,1.6V58c-0.5,0-1-0.1-1.4-0.5
		c-0.4-0.3-0.9-0.9-1.6-1.8l-7.2-9.5v8.8c0,0.8,0,1.4,0.2,1.7c0.1,0.3,0.3,0.6,0.6,0.9h-3.1c0.3-0.3,0.5-0.6,0.6-0.9
		c0.1-0.3,0.2-0.9,0.2-1.7v-9.4c0-0.7-0.1-1.3-0.2-1.6c-0.1-0.3-0.3-0.6-0.6-0.9h2.8l8.2,11v-8.4c0-0.7-0.1-1.3-0.2-1.6
		c-0.1-0.3-0.3-0.6-0.6-0.9H98.4L98.4,43.1z"/>
	<path fill="#010101" d="M101.9,55.1c0,0.8,0,1.3,0.1,1.7c0.1,0.3,0.3,0.6,0.7,0.9h-3.8c0.3-0.3,0.5-0.6,0.6-0.9
		c0.1-0.3,0.2-0.9,0.2-1.7v-9.4c0-0.7-0.1-1.3-0.2-1.6c-0.1-0.4-0.3-0.6-0.6-0.9h3.8c-0.3,0.3-0.5,0.6-0.7,0.9
		c-0.1,0.3-0.1,0.9-0.1,1.6V55.1L101.9,55.1z"/>
	<path fill="#010101" d="M109.1,55.1c0,0.8,0.1,1.3,0.2,1.7c0.1,0.3,0.3,0.6,0.6,0.9h-3.8c0.2-0.3,0.5-0.6,0.6-0.9
		c0.1-0.3,0.2-0.9,0.2-1.7V44.7h-1.1c-0.8,0-1.4,0.1-1.9,0.2c-0.5,0.1-0.8,0.3-1.1,0.6l0.6-2.4h10l-0.7,2.3
		c-0.2-0.2-0.5-0.4-0.8-0.6c-0.3-0.1-0.7-0.2-1.2-0.2h-1.6L109.1,55.1L109.1,55.1z"/>
	<path fill="#010101" d="M120.7,55.1c0,0.8,0,1.3,0.2,1.7c0.1,0.3,0.3,0.6,0.6,0.9h-3.8c0.3-0.3,0.5-0.6,0.6-0.9
		c0.2-0.3,0.2-0.9,0.2-1.7v-4l-3.5-5.8c-0.3-0.4-0.6-0.8-0.8-1.2c-0.3-0.3-0.6-0.6-1-0.9h3l3.6,6.3l2.4-4.2c0.1-0.2,0.2-0.5,0.3-0.7
		c0.1-0.2,0.1-0.4,0.1-0.6c0-0.2,0-0.3-0.1-0.5c-0.1-0.1-0.3-0.3-0.5-0.5h3.3l-4.7,8L120.7,55.1L120.7,55.1z"/>
	<path fill="#010101" d="M24,56.9l-1.6,3.9c-1,0.3-1.9,0.6-2.8,0.7c-0.9,0.2-1.7,0.2-2.5,0.2c-1.2,0-2.3-0.1-3.4-0.5
		c-1.2-0.3-2.2-0.7-3.2-1.4c-1.6-0.9-2.8-2.2-3.7-3.9c-0.8-1.7-1.3-3.5-1.3-5.5c0-1.5,0.3-3,0.9-4.4C7,44.8,7.9,43.5,9,42.5
		c1.1-1,2.3-1.8,3.7-2.3c1.4-0.5,2.8-0.8,4.5-0.8c0.7,0,1.5,0.1,2.3,0.2c0.8,0.1,1.7,0.3,2.7,0.6v3.4c-1-0.5-1.9-0.9-2.8-1.1
		c-0.8-0.2-1.7-0.4-2.5-0.4c-2.4,0-4.3,0.8-5.8,2.2C9.8,45.8,9,47.8,9,50.2c0,2.7,0.8,4.8,2.2,6.5c1.5,1.6,3.5,2.4,5.9,2.4
		c1,0,2.1-0.1,3.1-0.5C21.4,58.3,22.6,57.7,24,56.9L24,56.9z"/>
</g>
</svg>
